<svg width="120" height="120" viewBox="0 0 120 120" fill="none" xmlns="http://www.w3.org/2000/svg">
<g clip-path="url(#clip0_201_6)">
<rect width="120" height="120" rx="15" fill="#12193E"/>
<path d="M29.5312 93.2813L62.918 26.4844V68.9915M62.918 68.9915V93.2813M62.918 68.9915V61.4009M62.918 61.4009L90.2344 26.4844M62.918 61.4009L90.2344 93.2813" stroke="white" stroke-width="7"/>
<g filter="url(#filter0_f_201_6)">
<path d="M3.75 49.2187C25.8845 49.2187 43.8281 31.2752 43.8281 9.14062C43.8281 -12.9939 25.8845 -30.9375 3.75 -30.9375C-18.3845 -30.9375 -36.3281 -12.9939 -36.3281 9.14062C-36.3281 31.2752 -18.3845 49.2187 3.75 49.2187Z" fill="#EC2F4B"/>
</g>
<g filter="url(#filter1_f_201_6)">
<path d="M107.812 150.469C129.947 150.469 147.891 132.525 147.891 110.391C147.891 88.2561 129.947 70.3125 107.812 70.3125C85.678 70.3125 67.7344 88.2561 67.7344 110.391C67.7344 132.525 85.678 150.469 107.812 150.469Z" fill="#0484D9"/>
</g>
</g>
<defs>
<filter id="filter0_f_201_6" x="-86.3281" y="-80.9375" width="180.156" height="180.156" filterUnits="userSpaceOnUse" color-interpolation-filters="sRGB">
<feFlood flood-opacity="0" result="BackgroundImageFix"/>
<feBlend mode="normal" in="SourceGraphic" in2="BackgroundImageFix" result="shape"/>
<feGaussianBlur stdDeviation="25" result="effect1_foregroundBlur_201_6"/>
</filter>
<filter id="filter1_f_201_6" x="19.7344" y="22.3125" width="176.156" height="176.156" filterUnits="userSpaceOnUse" color-interpolation-filters="sRGB">
<feFlood flood-opacity="0" result="BackgroundImageFix"/>
<feBlend mode="normal" in="SourceGraphic" in2="BackgroundImageFix" result="shape"/>
<feGaussianBlur stdDeviation="24" result="effect1_foregroundBlur_201_6"/>
</filter>
<clipPath id="clip0_201_6">
<rect width="120" height="120" rx="15" fill="white"/>
</clipPath>
</defs>
</svg>
