<svg width="366" height="326" viewBox="0 0 366 326" fill="none" xmlns="http://www.w3.org/2000/svg">
<g filter="url(#filter0_f_1_82)">
<path fill-rule="evenodd" clip-rule="evenodd" d="M188.014 31.0381C212.874 29.1565 189.878 97.6193 214.703 99.9097C254.259 103.559 281.054 28.1554 317.883 43.0199C346.479 54.5618 283.799 97.5206 285.012 128.288C285.801 148.277 316.774 154.917 323.046 173.916C329.63 193.861 340.509 229.312 320.63 236.18C288.411 247.311 254.187 193.759 223.385 208.347C199.489 219.663 231.405 265.565 214.946 286.232C203.628 300.444 177.174 294.973 160.981 286.707C144.312 278.198 143.509 252.689 128.191 241.944C112.53 230.958 80.0938 243.616 73.8166 225.565C66.7565 205.263 109.664 189.04 102.72 168.698C92.9082 139.957 28.8481 139.769 34.3324 109.902C39.3875 82.373 88.2076 96.5366 116.213 95.2129C132.251 94.4549 151.107 114.509 163.068 103.818C182.416 86.5252 162.119 32.998 188.014 31.0381Z" fill="#F63DD7" fill-opacity="0.54"/>
</g>
<g filter="url(#filter1_f_1_82)">
<path fill-rule="evenodd" clip-rule="evenodd" d="M226.951 90.2293C233.634 95.5385 245.889 93.677 249.821 101.252C254.124 109.542 248.058 119.607 247.016 128.888C246.283 135.425 243.954 141.744 244.542 148.296C245.23 155.962 247.565 163.323 250.737 170.335C260.587 192.112 296.037 213.503 283.136 233.616C271.747 251.372 245.436 213.772 224.486 211.261C215.107 210.137 207.397 228.311 199.232 223.561C187.385 216.67 195.287 182.961 182.073 186.587C151.614 194.946 142.351 245.629 110.84 247.818C91.8609 249.137 114.042 210.344 113.904 191.323C113.821 179.95 104.78 167.705 110.182 157.699C116.91 145.238 144.261 148.019 144.922 133.872C145.779 115.529 108.748 107.035 113.378 89.2672C117.05 75.1757 142.35 86.1729 156.7 88.6751C167.184 90.5032 175.707 106.031 185.488 101.841C198.086 96.4433 193.713 70.8593 206.912 67.1631C216.803 64.3934 218.907 83.8392 226.951 90.2293Z" fill="#4FFFAA" fill-opacity="0.96"/>
</g>
<g filter="url(#filter2_f_1_82)">
<path fill-rule="evenodd" clip-rule="evenodd" d="M40.3735 159.537C43.7296 138.625 59.3302 118.106 78.7 109.539C101.569 99.4237 133.282 124.964 153.08 109.687C168.577 97.729 140.369 65.5661 153.951 51.4707C164.703 40.3133 186.854 52.3643 198.751 62.2912C212.135 73.4589 204.878 109.385 222.287 108.49C249.221 107.106 258.148 63.4856 284.529 57.8839C301.014 54.3834 329.437 70.117 325.658 86.5405C319.012 115.427 274.909 121.736 263.54 149.11C258.879 160.331 284.418 163.487 289.03 174.728C293.453 185.509 296.487 201.121 288.267 209.382C278.954 218.739 260.063 206.892 249.348 214.603C238.981 222.064 265.399 262.43 255.5 270.5C246.371 277.943 208.193 262.941 198.845 255.776C185.921 245.872 198.548 207.128 182.551 210.167C140.862 218.09 119.12 276.879 76.7366 278.98C55.0389 280.056 67.9145 236.946 61.5876 216.164C55.6667 196.715 37.1519 179.61 40.3735 159.537Z" fill="#694AF0" fill-opacity="0.72"/>
</g>
<path d="M81.5 187.625C83.6667 187.625 84.75 188.458 84.75 190.125C84.75 190.875 84.2917 191.542 83.375 192.125C82.4583 192.708 80.8333 193 78.5 193H17.1875L49.8125 109.062H33.875C30.7083 109.062 28.4792 109.208 27.1875 109.5C25.5625 109.833 24.4167 110 23.75 110C21.5833 110 20.5 109.167 20.5 107.5C20.5 105.542 22.5417 104.562 26.625 104.562H82.4375L50.625 188.437H71.4375C74.5625 188.437 76.75 188.312 78 188.062C79.4583 187.771 80.625 187.625 81.5 187.625ZM98.6875 104.562H125.562V193H98.6875V104.562ZM159.188 115.312C154.896 115.312 151.542 114.354 149.125 112.437C146.708 110.521 145.5 108 145.5 104.875C145.5 102.25 146.833 99.9999 149.5 98.1249C152.333 96.1249 155.333 95.1249 158.5 95.1249C161.667 95.1249 164.104 95.4374 165.812 96.0624C167.562 96.6874 169.042 97.4999 170.25 98.4999C172.667 100.542 173.875 102.917 173.875 105.625C173.875 108.333 172.5 110.625 169.75 112.5C167 114.375 163.479 115.312 159.188 115.312ZM146.062 126.25H172.938V193H146.062V126.25ZM239.688 133.062C238.646 132.396 237.521 132.062 236.312 132.062C235.104 132.062 233.854 132.354 232.562 132.937C231.271 133.479 229.917 134.25 228.5 135.25C225.542 137.375 222.812 140.208 220.312 143.75V193H193.438V126.25H220.312V136.937C227.438 129.062 235.5 125.125 244.5 125.125C259.208 125.125 266.562 132.25 266.562 146.5V193H239.688V133.062ZM300.688 172.625C296.979 173.75 295.125 174.979 295.125 176.312C295.125 177.604 296.208 178.5 298.375 179C302.583 180 308.375 180.604 315.75 180.812C323.125 180.979 328.667 181.542 332.375 182.5C336.125 183.417 339.104 184.583 341.312 186C345.312 188.625 347.312 192.104 347.312 196.437C347.312 201.854 344.625 206.25 339.25 209.625C333.292 213.333 324.896 215.187 314.062 215.187C302.854 215.187 293.604 213.521 286.312 210.187C283.688 208.896 282.375 207.437 282.375 205.812C282.375 205.104 282.625 204.542 283.125 204.125C283.667 203.708 284.229 203.5 284.812 203.5C285.521 203.5 286.333 203.771 287.25 204.312C289.375 205.521 291.333 206.521 293.125 207.312C294.958 208.146 297.812 208.937 301.688 209.687C305.562 210.437 309.292 210.812 312.875 210.812C316.5 210.812 319.438 210.646 321.688 210.312C323.979 210.021 325.875 209.667 327.375 209.25C330.333 208.375 331.812 207.396 331.812 206.312C331.812 205.312 331.521 204.583 330.938 204.125C330.354 203.667 329.583 203.25 328.625 202.875C327.708 202.542 326.417 202.229 324.75 201.937C321.333 201.354 316.688 200.917 310.812 200.625C304.938 200.333 300.292 199.75 296.875 198.875C293.458 198.042 290.667 196.958 288.5 195.625C284.292 193.083 282.188 189.646 282.188 185.312C282.188 179.062 286.417 174 294.875 170.125C291 168 287.917 165.208 285.625 161.75C283.333 158.25 282.188 154.479 282.188 150.437C282.188 146.354 282.938 142.833 284.438 139.875C285.979 136.875 288.125 134.292 290.875 132.125C296.667 127.458 304.146 125.125 313.312 125.125C317.396 125.125 321.5 125.75 325.625 127C331.542 121.292 337.021 118.437 342.062 118.437C344.188 118.437 345.75 118.792 346.75 119.5C347.792 120.208 348.312 121.104 348.312 122.187C348.312 123.271 347.958 124.062 347.25 124.562C346.542 125.021 345.875 125.25 345.25 125.25C344.125 125.25 343.167 125.125 342.375 124.875C341.208 124.458 340.021 124.25 338.812 124.25C336.562 124.25 333.729 125.812 330.312 128.937C337.104 132.271 341.542 137.062 343.625 143.312C344.292 145.396 344.625 147.958 344.625 151C344.625 154 343.75 157 342 160C340.25 163 337.917 165.583 335 167.75C328.917 172.25 321.771 174.5 313.562 174.5C309.229 174.583 304.938 173.958 300.688 172.625ZM313.812 169.937C320.562 169.854 326.375 168.208 331.25 165C336.875 161.333 339.688 156.375 339.688 150.125C339.688 143.875 336.917 138.833 331.375 135C326.292 131.5 320.438 129.687 313.812 129.562V169.937Z" fill="#212121"/>
<defs>
<filter id="filter0_f_1_82" x="3.7" y="0.700001" width="358.6" height="324.6" filterUnits="userSpaceOnUse" color-interpolation-filters="sRGB">
<feFlood flood-opacity="0" result="BackgroundImageFix"/>
<feBlend mode="normal" in="SourceGraphic" in2="BackgroundImageFix" result="shape"/>
<feGaussianBlur stdDeviation="15.15" result="effect1_foregroundBlur_1_82"/>
</filter>
<filter id="filter1_f_1_82" x="74.6582" y="38.3949" width="239.769" height="237.956" filterUnits="userSpaceOnUse" color-interpolation-filters="sRGB">
<feFlood flood-opacity="0" result="BackgroundImageFix"/>
<feBlend mode="normal" in="SourceGraphic" in2="BackgroundImageFix" result="shape"/>
<feGaussianBlur stdDeviation="14.25" result="effect1_foregroundBlur_1_82"/>
</filter>
<filter id="filter2_f_1_82" x="0.0999985" y="7.1" width="365.8" height="311.8" filterUnits="userSpaceOnUse" color-interpolation-filters="sRGB">
<feFlood flood-opacity="0" result="BackgroundImageFix"/>
<feBlend mode="normal" in="SourceGraphic" in2="BackgroundImageFix" result="shape"/>
<feGaussianBlur stdDeviation="19.95" result="effect1_foregroundBlur_1_82"/>
</filter>
</defs>
</svg>
